<mxfile host="app.diagrams.net" agent="Mozilla/5.0 (Windows NT 10.0; Win64; x64) AppleWebKit/537.36 (KHTML, like Gecko) Chrome/131.0.0.0 Safari/537.36 Edg/131.0.0.0" version="25.0.3">
  <diagram name="第 1 页" id="L2_1v1ckUM3RRqeBR0R3">
    <mxGraphModel dx="1417" dy="712" grid="1" gridSize="10" guides="1" tooltips="1" connect="1" arrows="1" fold="1" page="1" pageScale="1" pageWidth="827" pageHeight="1169" math="0" shadow="0">
      <root>
        <mxCell id="0" />
        <mxCell id="1" parent="0" />
        <mxCell id="-bTO8dplJWbbuG2e8g2P-1" value="&lt;font style=&quot;font-size: 22px;&quot; color=&quot;#00cc00&quot;&gt;&lt;b style=&quot;&quot;&gt;医疗领域的多模态大语言模型&lt;/b&gt;&lt;/font&gt;" style="ellipse;shape=cloud;whiteSpace=wrap;html=1;fillColor=#dae8fc;strokeColor=#6c8ebf;" vertex="1" parent="1">
          <mxGeometry x="220" y="40" width="380" height="210" as="geometry" />
        </mxCell>
        <mxCell id="-bTO8dplJWbbuG2e8g2P-2" value="" style="shape=actor;whiteSpace=wrap;html=1;fillColor=#ffe6cc;strokeColor=#d79b00;" vertex="1" parent="1">
          <mxGeometry x="210" y="520" width="30" height="40" as="geometry" />
        </mxCell>
        <mxCell id="-bTO8dplJWbbuG2e8g2P-3" value="" style="shape=actor;whiteSpace=wrap;html=1;fillColor=#ffe6cc;strokeColor=#d79b00;" vertex="1" parent="1">
          <mxGeometry x="250" y="520" width="30" height="40" as="geometry" />
        </mxCell>
        <mxCell id="-bTO8dplJWbbuG2e8g2P-4" value="" style="shape=actor;whiteSpace=wrap;html=1;fillColor=#ffe6cc;strokeColor=#d79b00;" vertex="1" parent="1">
          <mxGeometry x="230" y="480" width="30" height="40" as="geometry" />
        </mxCell>
        <mxCell id="-bTO8dplJWbbuG2e8g2P-6" value="users" style="text;html=1;align=center;verticalAlign=middle;resizable=0;points=[];autosize=1;strokeColor=none;fillColor=none;strokeWidth=15;" vertex="1" parent="1">
          <mxGeometry x="210" y="560" width="50" height="30" as="geometry" />
        </mxCell>
        <mxCell id="-bTO8dplJWbbuG2e8g2P-7" value="" style="shape=doubleArrow;whiteSpace=wrap;html=1;fillColor=#dae8fc;strokeColor=#6c8ebf;" vertex="1" parent="1">
          <mxGeometry x="360" y="345" width="100" height="40" as="geometry" />
        </mxCell>
        <mxCell id="-bTO8dplJWbbuG2e8g2P-8" value="&lt;font style=&quot;font-size: 21px;&quot;&gt;VisualGLM-6B&lt;/font&gt;" style="rounded=1;whiteSpace=wrap;html=1;fillColor=#d5e8d4;strokeColor=#82b366;" vertex="1" parent="1">
          <mxGeometry x="190" y="320" width="170" height="90" as="geometry" />
        </mxCell>
        <mxCell id="-bTO8dplJWbbuG2e8g2P-9" value="&lt;font style=&quot;font-size: 21px;&quot;&gt;Chatglm4-9B-chat&lt;/font&gt;" style="rounded=1;whiteSpace=wrap;html=1;fillColor=#e1d5e7;strokeColor=#9673a6;" vertex="1" parent="1">
          <mxGeometry x="460" y="322.5" width="190" height="85" as="geometry" />
        </mxCell>
        <mxCell id="-bTO8dplJWbbuG2e8g2P-10" value="" style="shape=curlyBracket;whiteSpace=wrap;html=1;rounded=1;flipH=1;labelPosition=right;verticalLabelPosition=middle;align=left;verticalAlign=middle;" vertex="1" parent="1">
          <mxGeometry x="160" y="260" width="30" height="200" as="geometry" />
        </mxCell>
        <mxCell id="-bTO8dplJWbbuG2e8g2P-11" value="" style="shape=curlyBracket;whiteSpace=wrap;html=1;rounded=1;labelPosition=left;verticalLabelPosition=middle;align=right;verticalAlign=middle;" vertex="1" parent="1">
          <mxGeometry x="650" y="300" width="20" height="120" as="geometry" />
        </mxCell>
      </root>
    </mxGraphModel>
  </diagram>
</mxfile>
